<?xml version="1.0" encoding="UTF-8" standalone="no"?>
<!-- Created with Inkscape (http://www.inkscape.org/) -->

<svg
   xmlns:dc="http://purl.org/dc/elements/1.1/"
   xmlns:cc="http://creativecommons.org/ns#"
   xmlns:rdf="http://www.w3.org/1999/02/22-rdf-syntax-ns#"
   xmlns:svg="http://www.w3.org/2000/svg"
   xmlns="http://www.w3.org/2000/svg"
   xmlns:sodipodi="http://sodipodi.sourceforge.net/DTD/sodipodi-0.dtd"
   xmlns:inkscape="http://www.inkscape.org/namespaces/inkscape"
   width="1cm"
   height="1cm"
   viewBox="0 0 9.9999999 9.9999999"
   version="1.1"
   id="svg203"
   inkscape:version="0.92.4 (5da689c313, 2019-01-14)"
   sodipodi:docname="grapes.svg">
  <defs
     id="defs197" />
  <sodipodi:namedview
     id="base"
     pagecolor="#ffffff"
     bordercolor="#666666"
     borderopacity="1.0"
     inkscape:pageopacity="0.0"
     inkscape:pageshadow="2"
     inkscape:zoom="15.839192"
     inkscape:cx="18.29043"
     inkscape:cy="19.488765"
     inkscape:document-units="mm"
     inkscape:current-layer="layer1"
     showgrid="false"
     units="cm"
     inkscape:window-width="1918"
     inkscape:window-height="1048"
     inkscape:window-x="0"
     inkscape:window-y="30"
     inkscape:window-maximized="0" />
  <metadata
     id="metadata200">
    <rdf:RDF>
      <cc:Work
         rdf:about="">
        <dc:format>image/svg+xml</dc:format>
        <dc:type
           rdf:resource="http://purl.org/dc/dcmitype/StillImage" />
        <dc:title></dc:title>
      </cc:Work>
    </rdf:RDF>
  </metadata>
  <g
     inkscape:label="Layer 1"
     inkscape:groupmode="layer"
     id="layer1"
     transform="translate(0,-287)">
    <path
       style="fill:none;stroke:#000000;stroke-width:0.26458332px;stroke-linecap:butt;stroke-linejoin:miter;stroke-opacity:1"
       d="m 2.1047475,288.39726 c 0.076985,2.59995 1.3898538,3.67835 3.1571212,5.44562 0.3523083,0.35231 0.9160354,0.93234 1.2361217,1.05237"
       id="path205"
       inkscape:connector-curvature="0" />
    <path
       style="fill:none;stroke:#000000;stroke-width:0.26458332px;stroke-linecap:butt;stroke-linejoin:miter;stroke-opacity:1"
       d="m 3.290756,290.01758 c -0.2048037,0.10794 -0.2916418,0.18964 -0.2004521,0.41761 0.50702,1.26755 0.9199486,-1.22704 0.066817,-0.26727"
       id="path207"
       inkscape:connector-curvature="0" />
    <path
       style="fill:none;stroke:#000000;stroke-width:0.26458332px;stroke-linecap:butt;stroke-linejoin:miter;stroke-opacity:1"
       d="m 3.9756341,291.05325 c -0.112078,0.12609 -0.2839267,0.31753 -0.2171565,0.51784 0.040011,0.12003 0.1698046,0.16704 0.2839739,0.16704 0.934045,0 0.2015035,-0.99153 -0.1837478,-0.55124"
       id="path209"
       inkscape:connector-curvature="0" />
    <path
       style="fill:none;stroke:#000000;stroke-width:0.26458332px;stroke-linecap:butt;stroke-linejoin:miter;stroke-opacity:1"
       d="m 4.5602863,290.0677 c -0.1948691,0.0154 -0.3841999,0.13659 -0.3841999,0.36749 0,1.26253 1.5302577,-1.04619 0.1503389,-0.18375"
       id="path211"
       inkscape:connector-curvature="0" />
    <path
       style="fill:none;stroke:#000000;stroke-width:0.26458332px;stroke-linecap:butt;stroke-linejoin:miter;stroke-opacity:1"
       d="m 5.1616427,290.70246 c -0.2955176,-0.0636 -0.5139849,0.2814 -0.334087,0.55125 0.4401397,0.6602 1.4515377,-1.20309 0.1336349,-0.43432"
       id="path213"
       inkscape:connector-curvature="0" />
    <path
       style="fill:none;stroke:#000000;stroke-width:0.26458332px;stroke-linecap:butt;stroke-linejoin:miter;stroke-opacity:1"
       d="m 5.0447122,291.95529 c -0.1381445,-0.0864 -0.2291122,-0.19805 -0.4009041,-0.0835 -0.3585533,0.23903 0.067441,0.85488 0.4343128,0.63476 0.4312517,-0.25875 0.031794,-0.94122 -0.3841999,-0.58465"
       id="path215"
       inkscape:connector-curvature="0" />
    <path
       style="fill:none;stroke:#000000;stroke-width:0.26458332px;stroke-linecap:butt;stroke-linejoin:miter;stroke-opacity:1"
       d="m 5.5291383,292.92414 c -0.2074068,-0.013 -0.3127226,0.17364 -0.2672696,0.4009 0.014674,0.0734 0.1059241,0.13649 0.1670436,0.16705 0.438907,0.21945 0.3803317,-0.85577 -0.1503391,-0.40091"
       id="path217"
       inkscape:connector-curvature="0" />
    <path
       style="fill:none;stroke:#000000;stroke-width:0.26458332px;stroke-linecap:butt;stroke-linejoin:miter;stroke-opacity:1"
       d="m 5.9300427,291.73813 c -0.1855632,-0.14768 -0.3971997,0.078 -0.434313,0.30068 -0.022836,0.13702 0.060765,0.22115 0.1837478,0.26727 0.9471747,0.35519 0.7574444,-1.10421 0.100226,-0.63477"
       id="path219"
       inkscape:connector-curvature="0" />
    <path
       style="fill:none;stroke:#000000;stroke-width:0.26458332px;stroke-linecap:butt;stroke-linejoin:miter;stroke-opacity:1"
       d="m 6.1137905,293.64243 c -0.145292,0.008 -0.2616316,0.2397 -0.2171565,0.41761 0.2226106,0.89044 0.8147113,-1.14796 0.066817,-0.23387"
       id="path221"
       inkscape:connector-curvature="0" />
    <path
       style="fill:none;stroke:#000000;stroke-width:0.26458332px;stroke-linecap:butt;stroke-linejoin:miter;stroke-opacity:1"
       d="m 2.3887214,290.98644 c -1.48337013,1.11877 1.4277532,1.15016 0.2505652,0.26727 -0.1984596,-0.14885 -0.4482435,-0.0145 -0.6514695,0.0668"
       id="path223"
       inkscape:connector-curvature="0" />
    <path
       style="fill:none;stroke:#000000;stroke-width:0.26458332px;stroke-linecap:butt;stroke-linejoin:miter;stroke-opacity:1"
       d="m 3.1738257,292.23926 c -0.2483998,0.024 -0.334087,0.26973 -0.334087,0.51784 0,1.39579 1.4411119,-0.90431 0.2338608,-0.30068"
       id="path225"
       inkscape:connector-curvature="0" />
    <path
       style="fill:none;stroke:#000000;stroke-width:0.26458332px;stroke-linecap:butt;stroke-linejoin:miter;stroke-opacity:1"
       d="m 2.0212258,292.84062 c -0.1926209,-0.0725 -0.2929481,0.002 -0.3674956,0.20045 -0.1767858,0.47143 0.2893438,1.04163 0.5846521,0.45102 0.2521453,-0.50429 -0.2484919,-0.81181 -0.5679478,-0.30068"
       id="path227"
       inkscape:connector-curvature="0" />
    <path
       style="fill:none;stroke:#000000;stroke-width:0.26458332px;stroke-linecap:butt;stroke-linejoin:miter;stroke-opacity:1"
       d="m 4.159382,293.27493 c -0.015097,-0.14124 -0.204774,-0.17942 -0.3173825,-0.0668 -0.227951,0.22795 0.068029,0.7073 0.3674956,0.46773 0.4341805,-0.34735 -0.012383,-0.73331 -0.3842001,-0.46773"
       id="path229"
       inkscape:connector-curvature="0" />
    <path
       style="fill:none;stroke:#000000;stroke-width:0.26458332px;stroke-linecap:butt;stroke-linejoin:miter;stroke-opacity:1"
       d="m 3.2406431,293.69254 c -0.1476994,-0.079 -0.2890893,-0.0583 -0.3842001,0.10023 -0.2375991,0.39599 0.3060655,0.78672 0.6013566,0.4176 0.2684399,-0.33555 -0.2464443,-0.71821 -0.5345393,-0.33408"
       id="path231"
       inkscape:connector-curvature="0" />
    <path
       style="fill:none;stroke:#000000;stroke-width:0.26458332px;stroke-linecap:butt;stroke-linejoin:miter;stroke-opacity:1"
       d="m 4.8442602,294.09344 c -0.1305582,-0.10392 -0.3287768,-0.0767 -0.3674957,0.11693 -0.02267,0.11335 0.043698,0.24993 0.1336347,0.31739 0.6577732,0.49333 0.6435759,-1.18415 0.016703,-0.46772"
       id="path233"
       inkscape:connector-curvature="0" />
    <path
       style="fill:none;stroke:#000000;stroke-width:0.26458332px;stroke-linecap:butt;stroke-linejoin:miter;stroke-opacity:1"
       d="m 5.328686,294.74491 c -0.2062403,0.0985 -0.2849721,0.33795 -0.2338607,0.56795 0.2519207,1.13364 0.8680948,-1.24029 0.016703,-0.26727"
       id="path235"
       inkscape:connector-curvature="0" />
    <path
       style="fill:none;stroke:#000000;stroke-width:0.26458332px;stroke-linecap:butt;stroke-linejoin:miter;stroke-opacity:1"
       d="m 6.7652598,292.99096 c 0.013684,-1.06411 -0.7790302,0.57149 -0.016703,0.31738 0.1476563,-0.0492 0.2987249,-0.16314 0.3674957,-0.30068 0.1050361,-0.21007 -0.388356,-0.40511 -0.5345393,-0.20045"
       id="path237"
       inkscape:connector-curvature="0" />
    <path
       style="fill:none;stroke:#000000;stroke-width:0.26458332px;stroke-linecap:butt;stroke-linejoin:miter;stroke-opacity:1"
       d="m 7.2162772,294.3106 c 0.00622,-0.14769 -0.1202449,-0.27731 -0.2672696,-0.16704 -0.3290123,0.24676 -0.2445017,1.13438 0.3173825,0.68488 0.6069002,-0.48552 0.096266,-1.26161 -0.2338607,-0.60136"
       id="path239"
       inkscape:connector-curvature="0" />
    <path
       style="fill:none;stroke:#000000;stroke-width:0.26458332px;stroke-linecap:butt;stroke-linejoin:miter;stroke-opacity:1"
       d="m 6.5481032,295.42979 c -0.5148762,-1.17028 -0.5268788,1.35954 0.5178349,-0.0334 0.1722072,-0.22961 -0.3800274,-0.43987 -0.5846522,-0.16704"
       id="path241"
       inkscape:connector-curvature="0" />
  </g>
</svg>
