<?xml version="1.0" encoding="UTF-8" standalone="no"?>
<!-- Created with Inkscape (http://www.inkscape.org/) -->

<svg
   xmlns:dc="http://purl.org/dc/elements/1.1/"
   xmlns:cc="http://creativecommons.org/ns#"
   xmlns:rdf="http://www.w3.org/1999/02/22-rdf-syntax-ns#"
   xmlns:svg="http://www.w3.org/2000/svg"
   xmlns="http://www.w3.org/2000/svg"
   xmlns:sodipodi="http://sodipodi.sourceforge.net/DTD/sodipodi-0.dtd"
   xmlns:inkscape="http://www.inkscape.org/namespaces/inkscape"
   width="1cm"
   height="1cm"
   viewBox="0 0 9.9999999 9.9999997"
   version="1.1"
   id="svg391"
   inkscape:version="0.92.4 (5da689c313, 2019-01-14)"
   sodipodi:docname="lemon.svg">
  <defs
     id="defs385" />
  <sodipodi:namedview
     id="base"
     pagecolor="#ffffff"
     bordercolor="#666666"
     borderopacity="1.0"
     inkscape:pageopacity="0.0"
     inkscape:pageshadow="2"
     inkscape:zoom="15.839192"
     inkscape:cx="31.517342"
     inkscape:cy="17.043007"
     inkscape:document-units="mm"
     inkscape:current-layer="layer1"
     showgrid="false"
     units="cm"
     inkscape:window-width="1918"
     inkscape:window-height="1048"
     inkscape:window-x="0"
     inkscape:window-y="30"
     inkscape:window-maximized="0" />
  <metadata
     id="metadata388">
    <rdf:RDF>
      <cc:Work
         rdf:about="">
        <dc:format>image/svg+xml</dc:format>
        <dc:type
           rdf:resource="http://purl.org/dc/dcmitype/StillImage" />
        <dc:title></dc:title>
      </cc:Work>
    </rdf:RDF>
  </metadata>
  <g
     inkscape:label="Layer 1"
     inkscape:groupmode="layer"
     id="layer1"
     transform="translate(0,-287.00002)">
    <path
       style="fill:none;stroke:#000000;stroke-width:0.26458332px;stroke-linecap:butt;stroke-linejoin:miter;stroke-opacity:1"
       d="m 2.5390605,288.4808 c -1.0161957,0.36254 -0.1837478,0.4724 -0.1837478,1.05238 0,0.0231 -0.3544209,0.47135 -0.4009043,0.51783 -0.1209456,0.12095 -0.069627,0.54016 -0.1503391,0.70159 -0.7000811,1.40016 0.7415831,3.66601 2.121452,4.12597 1.0363872,0.34546 1.4602097,-0.20045 1.9042951,-0.20045 0.1830522,0 0.3611089,0.68807 0.7015826,0.51783 0.1242537,-0.0621 0.3031366,-0.28643 0.3674957,-0.35079 0.1614752,-0.16148 -0.4788578,-0.5067 -0.3173826,-0.66818 0.7430787,-0.69533 0.4035395,-0.72965 0.4510174,-1.62031 0.1515146,-0.91553 -0.5228881,-1.94084 -1.0857826,-2.48895 -1.5351947,-1.14779 -2.8745286,-0.73638 -2.9733735,-0.83522 -0.1642678,-0.16427 -0.3322432,-0.48431 -0.3006783,-0.7684"
       id="path395"
       inkscape:connector-curvature="0"
       sodipodi:nodetypes="cscccsccccccc" />
  </g>
</svg>
