<?xml version="1.0" encoding="UTF-8" standalone="no"?>
<!-- Created with Inkscape (http://www.inkscape.org/) -->

<svg
   xmlns:dc="http://purl.org/dc/elements/1.1/"
   xmlns:cc="http://creativecommons.org/ns#"
   xmlns:rdf="http://www.w3.org/1999/02/22-rdf-syntax-ns#"
   xmlns:svg="http://www.w3.org/2000/svg"
   xmlns="http://www.w3.org/2000/svg"
   xmlns:sodipodi="http://sodipodi.sourceforge.net/DTD/sodipodi-0.dtd"
   xmlns:inkscape="http://www.inkscape.org/namespaces/inkscape"
   width="1cm"
   height="1cm"
   viewBox="0 0 10 9.9999997"
   version="1.1"
   id="svg114"
   inkscape:version="0.92.4 (5da689c313, 2019-01-14)"
   sodipodi:docname="orange.svg">
  <defs
     id="defs108" />
  <sodipodi:namedview
     id="base"
     pagecolor="#ffffff"
     bordercolor="#666666"
     borderopacity="1.0"
     inkscape:pageopacity="0.0"
     inkscape:pageshadow="2"
     inkscape:zoom="15.839192"
     inkscape:cx="20.833849"
     inkscape:cy="17.576144"
     inkscape:document-units="mm"
     inkscape:current-layer="layer1"
     showgrid="false"
     units="cm"
     inkscape:window-width="1918"
     inkscape:window-height="1048"
     inkscape:window-x="0"
     inkscape:window-y="30"
     inkscape:window-maximized="0" />
  <metadata
     id="metadata111">
    <rdf:RDF>
      <cc:Work
         rdf:about="">
        <dc:format>image/svg+xml</dc:format>
        <dc:type
           rdf:resource="http://purl.org/dc/dcmitype/StillImage" />
        <dc:title></dc:title>
      </cc:Work>
    </rdf:RDF>
  </metadata>
  <g
     inkscape:label="Layer 1"
     inkscape:groupmode="layer"
     id="layer1"
     transform="translate(0,-287.00002)">
    <path
       style="fill:none;stroke:#000000;stroke-width:0.26458332px;stroke-linecap:butt;stroke-linejoin:miter;stroke-opacity:1"
       d="m 5.2618687,289.09886 c -0.081038,-0.31256 -0.5108525,-0.12923 -0.7851042,-0.0835 -1.5253853,0.25423 -2.4378447,1.56675 -2.8397386,2.97338 -1.07054241,3.74689 4.6657062,5.39261 6.8487814,2.77292 1.7126677,-2.0552 0.3307056,-4.74516 -1.8708864,-5.47903 -0.4527177,-0.1509 -1.0074937,-0.39417 -1.5033914,-0.28397"
       id="path141"
       inkscape:connector-curvature="0" />
    <path
       style="fill:none;stroke:#000000;stroke-width:0.26458332px;stroke-linecap:butt;stroke-linejoin:miter;stroke-opacity:1"
       d="m 4.8442602,289.91738 c -0.3136564,0.64274 0.1336346,1.26453 0.1336346,1.88759 0,0.27326 -2.8333254,-1.22102 -1.5702084,-1.5368 0.214026,-0.0535 0.4384202,-0.35079 0.6514696,-0.35079 0.2812221,0 0.4353287,-0.022 0.6848781,0.0334"
       id="path145"
       inkscape:connector-curvature="0" />
    <path
       style="fill:none;stroke:#000000;stroke-width:0.26458332px;stroke-linecap:butt;stroke-linejoin:miter;stroke-opacity:1"
       d="m 5.562547,291.85508 c -0.056559,0.008 -0.066817,-0.33381 -0.066817,-0.55124 0,-0.25484 -0.1106046,-1.27586 0.066817,-1.45328 0.2542969,-0.2543 1.9105404,0.67863 1.6537302,0.93544 -0.3088018,0.30881 -1.4505278,1.09847 -1.503391,1.33635"
       id="path147"
       inkscape:connector-curvature="0" />
    <path
       style="fill:none;stroke:#000000;stroke-width:0.26458332px;stroke-linecap:butt;stroke-linejoin:miter;stroke-opacity:1"
       d="m 5.562547,292.707 c -0.041244,-0.13525 2.2358752,-1.32215 2.2550866,-1.30294 0.1574157,0.15742 0.7470426,1.25748 0.5011303,1.5034 -0.3453465,0.34534 -2.370043,0.0285 -2.8564429,-0.13364"
       id="path149"
       inkscape:connector-curvature="0" />
    <path
       style="fill:none;stroke:#000000;stroke-width:0.26458332px;stroke-linecap:butt;stroke-linejoin:miter;stroke-opacity:1"
       d="m 5.5959557,293.32506 c 0.1058317,-0.2619 0.426652,-0.0103 0.6681737,0.0501 0.5192937,0.12982 1.1656647,0.11329 1.5033911,0.45101 0.2050936,0.2051 -0.5021975,1.15207 -0.8018084,1.00227 -0.3401383,-0.17007 -0.5698189,-0.56982 -0.8352174,-0.83522 -0.1117714,-0.11177 -0.4105394,-0.62705 -0.4510172,-0.73499"
       id="path151"
       inkscape:connector-curvature="0" />
    <path
       style="fill:none;stroke:#000000;stroke-width:0.26458332px;stroke-linecap:butt;stroke-linejoin:miter;stroke-opacity:1"
       d="m 5.5959557,293.32506 c -0.5466847,0.0325 -0.1723409,-0.0432 -0.083522,0.40091 0.056069,0.28034 0.067645,0.50237 0.2338609,0.75169 0.8919316,1.3379 -0.88384,0.93694 -0.9354433,0.88533 -0.1447631,-0.14476 0.2235303,-1.23348 0.3507912,-1.40316 0.1369756,-0.18263 -0.077954,-0.66817 0.1503391,-0.66817 0.095311,-10e-6 0.1893158,0.0223 0.2839739,0.0334"
       id="path153"
       inkscape:connector-curvature="0" />
    <path
       style="fill:none;stroke:#000000;stroke-width:0.26458332px;stroke-linecap:butt;stroke-linejoin:miter;stroke-opacity:1"
       d="m 4.6271037,293.25825 c -0.081155,0.26806 -1.2471739,1.78196 -1.4365738,1.40316 -0.1380484,-0.2761 -0.1381315,-1.04627 -0.3841998,-1.1693 -0.2178266,-0.10892 0.4794787,-0.0859 0.7182868,-0.13364 0.3473852,-0.0695 0.7920953,0.0162 1.1024868,-0.10022 z"
       id="path155"
       inkscape:connector-curvature="0" />
    <path
       style="fill:none;stroke:#000000;stroke-width:0.26458332px;stroke-linecap:butt;stroke-linejoin:miter;stroke-opacity:1"
       d="m 4.4266516,292.23928 c -0.2697615,-0.23443 -0.5787527,-0.31541 -0.9354433,-0.43431 -0.1102347,-0.0368 -0.8356693,-0.46727 -0.9020348,-0.40091 -0.1039173,0.10392 -0.3156205,1.33811 -0.2338608,1.41987 0.031258,0.0313 0.3671828,-0.0167 0.4176087,-0.0167 0.2947966,0 1.4842291,0.23632 1.6871389,0.0334 0.3230795,-0.32308 0.1543905,-0.48392 -0.2672697,-0.7851"
       id="path157"
       inkscape:connector-curvature="0" />
  </g>
</svg>
