<?xml version="1.0" encoding="UTF-8" standalone="no"?>
<!-- Created with Inkscape (http://www.inkscape.org/) -->

<svg
   xmlns:dc="http://purl.org/dc/elements/1.1/"
   xmlns:cc="http://creativecommons.org/ns#"
   xmlns:rdf="http://www.w3.org/1999/02/22-rdf-syntax-ns#"
   xmlns:svg="http://www.w3.org/2000/svg"
   xmlns="http://www.w3.org/2000/svg"
   xmlns:sodipodi="http://sodipodi.sourceforge.net/DTD/sodipodi-0.dtd"
   xmlns:inkscape="http://www.inkscape.org/namespaces/inkscape"
   width="1cm"
   height="1cm"
   viewBox="0 0 10 9.9999997"
   version="1.1"
   id="svg287"
   inkscape:version="0.92.4 (5da689c313, 2019-01-14)"
   sodipodi:docname="strawberries.svg">
  <defs
     id="defs281" />
  <sodipodi:namedview
     id="base"
     pagecolor="#ffffff"
     bordercolor="#666666"
     borderopacity="1.0"
     inkscape:pageopacity="0.0"
     inkscape:pageshadow="2"
     inkscape:zoom="15.839192"
     inkscape:cx="21.787518"
     inkscape:cy="17.142857"
     inkscape:document-units="mm"
     inkscape:current-layer="layer1"
     showgrid="false"
     units="cm"
     inkscape:window-width="1918"
     inkscape:window-height="1048"
     inkscape:window-x="0"
     inkscape:window-y="30"
     inkscape:window-maximized="0" />
  <metadata
     id="metadata284">
    <rdf:RDF>
      <cc:Work
         rdf:about="">
        <dc:format>image/svg+xml</dc:format>
        <dc:type
           rdf:resource="http://purl.org/dc/dcmitype/StillImage" />
        <dc:title></dc:title>
      </cc:Work>
    </rdf:RDF>
  </metadata>
  <g
     inkscape:label="Layer 1"
     inkscape:groupmode="layer"
     id="layer1"
     transform="translate(0,-287.00002)">
    <path
       style="fill:none;stroke:#000000;stroke-width:0.26458332px;stroke-linecap:butt;stroke-linejoin:miter;stroke-opacity:1"
       d="m 2.6058779,290.43521 c -1.93907526,0.11709 -0.6936009,2.58481 0.2839737,3.0736 0.8518517,0.42593 1.957973,-2.168 1.3530522,-2.77292 -0.1531371,-0.15314 -0.5414164,-0.43087 -0.868626,-0.26727 -0.1137859,0.0569 -0.3507912,0.27756 -0.3507912,0.15034 0,-0.007 1.1020388,-0.46817 0.8018084,-0.7684 -0.6554007,-0.6554 -0.5636027,0.58465 -0.8185129,0.58465 -0.094658,0 0.091302,-0.1659 0.1336347,-0.25056 0.066626,-0.13325 -0.091915,-0.50122 -0.1503389,-0.61806 -0.2253062,-0.45062 -0.6801623,-0.1075 -0.4677218,0.31738 0.09686,0.19372 0.4510173,0.25114 0.4510173,0.46772 0,0.10252 -0.9812832,-1.07762 -1.1693041,-0.70158 -0.1920208,0.38404 0.7072309,0.6837 0.9020348,0.83522"
       id="path299"
       inkscape:connector-curvature="0" />
    <circle
       id="path311"
       cx="2.4471867"
       cy="291.34561"
       r="0.17539562"
       style="stroke-width:0.26458332" />
    <ellipse
       id="path313"
       cx="3.3492212"
       cy="291.25372"
       rx="0.15869127"
       ry="0.1503391"
       style="stroke-width:0.26458332" />
    <ellipse
       id="path319"
       cx="3.0652473"
       cy="291.88849"
       rx="0.15869127"
       ry="0.1503391"
       style="stroke-width:0.26458332" />
    <ellipse
       id="path321"
       cx="2.6810474"
       cy="292.47314"
       rx="0.15869127"
       ry="0.1503391"
       style="stroke-width:0.26458332" />
    <ellipse
       id="path323"
       cx="3.5246167"
       cy="292.57336"
       rx="0.13363476"
       ry="0.1503391"
       style="stroke-width:0.26458332" />
    <path
       style="fill:none;stroke:#000000;stroke-width:0.26458332px;stroke-linecap:butt;stroke-linejoin:miter;stroke-opacity:1"
       d="m 6.0803816,292.94086 c -1.8163522,-0.61649 -1.4246331,1.79931 -0.6347651,2.58918 0.1519235,0.15192 0.4445167,0.21065 0.5846522,0.35079 0.023749,0.0238 0.2065877,-0.0866 0.2338607,-0.10023 0.9268359,-0.46341 1.1048571,-0.8447 1.3864608,-1.97111 0.044318,-0.17727 0.1097608,-0.59182 -0.033409,-0.73499 -0.4484918,-0.44849 -1.2528259,0.0142 -1.2528259,-0.0167 0,-0.1377 1.371043,-0.66775 0.7683997,-0.86863 -0.2739011,-0.0913 -0.5683528,0.0509 -0.7015824,0.31738 -0.056893,0.11379 -0.060383,0.44075 -0.1503391,0.35079 -0.1186627,-0.11866 0.6416921,-1.11919 -0.050113,-1.11919 -0.3617714,0 -0.061345,0.96338 -0.033409,0.93545 0.031968,-0.032 -0.037655,-0.17554 -0.050113,-0.20046 -0.5113862,-1.02277 -1.2714883,0.016 -0.066818,0.46773 z"
       id="path325"
       inkscape:connector-curvature="0" />
    <path
       style="fill:none;stroke:#000000;stroke-width:0.26458332px;stroke-linecap:butt;stroke-linejoin:miter;stroke-opacity:1"
       d="m 6.865486,288.76478 c -0.3527996,-0.32252 -1.5037106,0.18311 -1.2862348,0.61806 0.620763,1.24152 0.6901953,1.20803 1.5869129,2.10475 0.4778491,0.47785 1.5634427,-1.66727 1.202713,-2.38873 -0.1760225,-0.35204 -0.2934846,-0.50113 -0.7349913,-0.50113 -0.1729703,0 -0.434313,0.45695 -0.434313,0.28398 0,-0.19206 0.7597976,-0.81041 0.5512435,-1.01897 -0.3777737,-0.37777 -0.5909601,0.26949 -0.7015827,0.60136 -0.1503331,0.451 0.2456908,-0.67896 -0.1336347,-0.86863 -0.6577274,-0.32886 -0.098857,1.0176 -0.066817,0.98556 0.1764694,-0.17647 -0.605095,-0.91126 -0.7349911,-0.65147 -0.2300666,0.46013 0.5965494,0.77073 0.7516955,1.01897"
       id="path327"
       inkscape:connector-curvature="0" />
    <ellipse
       id="path329"
       cx="5.6627731"
       cy="293.6842"
       rx="0.1837478"
       ry="0.19209997"
       style="stroke-width:0.26458332" />
    <ellipse
       id="path331"
       cx="6.6316247"
       cy="293.6174"
       rx="0.16704345"
       ry="0.15869127"
       style="stroke-width:0.26458332" />
    <ellipse
       id="path333"
       cx="6.3560033"
       cy="294.31897"
       rx="0.20880431"
       ry="0.17539562"
       style="stroke-width:0.26458332" />
    <ellipse
       id="path335"
       cx="5.7212381"
       cy="294.64471"
       rx="0.19209997"
       ry="0.1837478"
       style="stroke-width:0.26458332" />
    <ellipse
       id="path337"
       cx="6.4395251"
       cy="295.16254"
       rx="0.17539562"
       ry="0.1837478"
       style="stroke-width:0.26458332" />
    <ellipse
       id="path339"
       cx="6.6399775"
       cy="289.41626"
       rx="0.19209997"
       ry="0.1503391"
       style="stroke-width:0.26458332" />
    <ellipse
       id="path341"
       cx="7.6171813"
       cy="289.53317"
       rx="0.1503391"
       ry="0.16704345"
       style="stroke-width:0.26458332" />
    <ellipse
       id="path343"
       cx="7.0742898"
       cy="290.19299"
       rx="0.17539562"
       ry="0.15869127"
       style="stroke-width:0.26458332" />
    <ellipse
       id="path345"
       cx="7.4584904"
       cy="290.76929"
       rx="0.19209997"
       ry="0.1837478"
       style="stroke-width:0.26458332" />
  </g>
</svg>
